<?xml version="1.0" encoding="utf-8"?><svg xmlns="http://www.w3.org/2000/svg" xmlns:xlink="http://www.w3.org/1999/xlink"><symbol fill="currentColor" class="bwbi bwbi-arrow-clockwise" viewBox="0 0 16 16" id="arrow-clockwise" xmlns="http://www.w3.org/2000/svg"><path fill-rule="evenodd" d="M8 3a5 5 0 1 0 4.546 2.914.5.5 0 0 1 .908-.417A6 6 0 1 1 8 2z"/><path d="M8 4.466V.534a.25.25 0 0 1 .41-.192l2.36 1.966c.12.1.12.284 0 .384L8.41 4.658A.25.25 0 0 1 8 4.466"/></symbol><symbol fill="currentColor" class="bvbi bvbi-arrow-down-right" viewBox="0 0 16 16" id="arrow-down-right" xmlns="http://www.w3.org/2000/svg"><path fill-rule="evenodd" d="M14 13.5a.5.5 0 0 1-.5.5h-6a.5.5 0 0 1 0-1h4.793L2.146 2.854a.5.5 0 1 1 .708-.708L13 12.293V7.5a.5.5 0 0 1 1 0z"/></symbol><symbol fill="currentColor" class="bubi bubi-arrow-left-right" viewBox="0 0 16 16" id="arrow-left-right" xmlns="http://www.w3.org/2000/svg"><path fill-rule="evenodd" d="M1 11.5a.5.5 0 0 0 .5.5h11.793l-3.147 3.146a.5.5 0 0 0 .708.708l4-4a.5.5 0 0 0 0-.708l-4-4a.5.5 0 0 0-.708.708L13.293 11H1.5a.5.5 0 0 0-.5.5m14-7a.5.5 0 0 1-.5.5H2.707l3.147 3.146a.5.5 0 1 1-.708.708l-4-4a.5.5 0 0 1 0-.708l4-4a.5.5 0 1 1 .708.708L2.707 4H14.5a.5.5 0 0 1 .5.5"/></symbol><symbol fill="currentColor" class="btbi btbi-bell" viewBox="0 0 16 16" id="bell" xmlns="http://www.w3.org/2000/svg"><path d="M8 16a2 2 0 0 0 2-2H6a2 2 0 0 0 2 2M8 1.918l-.797.161A4 4 0 0 0 4 6c0 .628-.134 2.197-.459 3.742-.16.767-.376 1.566-.663 2.258h10.244c-.287-.692-.502-1.49-.663-2.258C12.134 8.197 12 6.628 12 6a4 4 0 0 0-3.203-3.92zM14.22 12c.223.447.481.801.78 1H1c.299-.199.557-.553.78-1C2.68 10.2 3 6.88 3 6c0-2.42 1.72-4.44 4.005-4.901a1 1 0 1 1 1.99 0A5 5 0 0 1 13 6c0 .88.32 4.2 1.22 6"/></symbol><symbol fill="currentColor" class="bsbi bsbi-caret-down" viewBox="0 0 16 16" id="caret-down" xmlns="http://www.w3.org/2000/svg"><path d="M3.204 5h9.592L8 10.481zm-.753.659 4.796 5.48a1 1 0 0 0 1.506 0l4.796-5.48c.566-.647.106-1.659-.753-1.659H3.204a1 1 0 0 0-.753 1.659"/></symbol><symbol fill="currentColor" class="brbi brbi-caret-left" viewBox="0 0 16 16" id="caret-left" xmlns="http://www.w3.org/2000/svg"><path d="M10 12.796V3.204L4.519 8zm-.659.753-5.48-4.796a1 1 0 0 1 0-1.506l5.48-4.796A1 1 0 0 1 11 3.204v9.592a1 1 0 0 1-1.659.753"/></symbol><symbol fill="currentColor" class="bqbi bqbi-caret-right" viewBox="0 0 16 16" id="caret-right" xmlns="http://www.w3.org/2000/svg"><path d="M6 12.796V3.204L11.481 8zm.659.753 5.48-4.796a1 1 0 0 0 0-1.506L6.66 2.451C6.011 1.885 5 2.345 5 3.204v9.592a1 1 0 0 0 1.659.753"/></symbol><symbol fill="currentColor" class="bpbi bpbi-caret-up" viewBox="0 0 16 16" id="caret-up" xmlns="http://www.w3.org/2000/svg"><path d="M3.204 11h9.592L8 5.519zm-.753-.659 4.796-5.48a1 1 0 0 1 1.506 0l4.796 5.48c.566.647.106 1.659-.753 1.659H3.204a1 1 0 0 1-.753-1.659"/></symbol><symbol fill="currentColor" class="bnbi bnbi-check" viewBox="0 0 16 16" id="check" xmlns="http://www.w3.org/2000/svg"><path d="M10.97 4.97a.75.75 0 0 1 1.07 1.05l-3.99 4.99a.75.75 0 0 1-1.08.02L4.324 8.384a.75.75 0 1 1 1.06-1.06l2.094 2.093 3.473-4.425z"/></symbol><symbol fill="currentColor" class="bobi bobi-check-circle" viewBox="0 0 16 16" id="check-circle" xmlns="http://www.w3.org/2000/svg"><path d="M8 15A7 7 0 1 1 8 1a7 7 0 0 1 0 14m0 1A8 8 0 1 0 8 0a8 8 0 0 0 0 16"/><path d="m10.97 4.97-.02.022-3.473 4.425-2.093-2.094a.75.75 0 0 0-1.06 1.06L6.97 11.03a.75.75 0 0 0 1.079-.02l3.992-4.99a.75.75 0 0 0-1.071-1.05"/></symbol><symbol fill="currentColor" class="bmbi bmbi-circle" viewBox="0 0 16 16" id="circle" xmlns="http://www.w3.org/2000/svg"><path d="M8 15A7 7 0 1 1 8 1a7 7 0 0 1 0 14m0 1A8 8 0 1 0 8 0a8 8 0 0 0 0 16"/></symbol><symbol fill="currentColor" class="blbi blbi-cloud-arrow-up" viewBox="0 0 16 16" id="cloud-arrow-up" xmlns="http://www.w3.org/2000/svg"><path fill-rule="evenodd" d="M7.646 5.146a.5.5 0 0 1 .708 0l2 2a.5.5 0 0 1-.708.708L8.5 6.707V10.5a.5.5 0 0 1-1 0V6.707L6.354 7.854a.5.5 0 1 1-.708-.708z"/><path d="M4.406 3.342A5.53 5.53 0 0 1 8 2c2.69 0 4.923 2 5.166 4.579C14.758 6.804 16 8.137 16 9.773 16 11.569 14.502 13 12.687 13H3.781C1.708 13 0 11.366 0 9.318c0-1.763 1.266-3.223 2.942-3.593.143-.863.698-1.723 1.464-2.383m.653.757c-.757.653-1.153 1.44-1.153 2.056v.448l-.445.049C2.064 6.805 1 7.952 1 9.318 1 10.785 2.23 12 3.781 12h8.906C13.98 12 15 10.988 15 9.773c0-1.216-1.02-2.228-2.313-2.228h-.5v-.5C12.188 4.825 10.328 3 8 3a4.53 4.53 0 0 0-2.941 1.1z"/></symbol><symbol fill="currentColor" class="bkbi bkbi-dash-circle" viewBox="0 0 16 16" id="dash-circle" xmlns="http://www.w3.org/2000/svg"><path d="M8 15A7 7 0 1 1 8 1a7 7 0 0 1 0 14m0 1A8 8 0 1 0 8 0a8 8 0 0 0 0 16"/><path d="M4 8a.5.5 0 0 1 .5-.5h7a.5.5 0 0 1 0 1h-7A.5.5 0 0 1 4 8"/></symbol><symbol fill="currentColor" class="bjbi bjbi-envelope" viewBox="0 0 16 16" id="envelope" xmlns="http://www.w3.org/2000/svg"><path d="M0 4a2 2 0 0 1 2-2h12a2 2 0 0 1 2 2v8a2 2 0 0 1-2 2H2a2 2 0 0 1-2-2zm2-1a1 1 0 0 0-1 1v.217l7 4.2 7-4.2V4a1 1 0 0 0-1-1zm13 2.383-4.708 2.825L15 11.105zm-.034 6.876-5.64-3.471L8 9.583l-1.326-.795-5.64 3.47A1 1 0 0 0 2 13h12a1 1 0 0 0 .966-.741M1 11.105l4.708-2.897L1 5.383z"/></symbol><symbol fill="currentColor" class="bibi bibi-eraser" viewBox="0 0 16 16" id="eraser" xmlns="http://www.w3.org/2000/svg"><path d="M8.086 2.207a2 2 0 0 1 2.828 0l3.879 3.879a2 2 0 0 1 0 2.828l-5.5 5.5A2 2 0 0 1 7.879 15H5.12a2 2 0 0 1-1.414-.586l-2.5-2.5a2 2 0 0 1 0-2.828zm2.121.707a1 1 0 0 0-1.414 0L4.16 7.547l5.293 5.293 4.633-4.633a1 1 0 0 0 0-1.414zM8.746 13.547 3.453 8.254 1.914 9.793a1 1 0 0 0 0 1.414l2.5 2.5a1 1 0 0 0 .707.293H7.88a1 1 0 0 0 .707-.293z"/></symbol><symbol fill="currentColor" class="bhbi bhbi-exclamation-circle" viewBox="0 0 16 16" id="exclamation-circle" xmlns="http://www.w3.org/2000/svg"><path d="M8 15A7 7 0 1 1 8 1a7 7 0 0 1 0 14m0 1A8 8 0 1 0 8 0a8 8 0 0 0 0 16"/><path d="M7.002 11a1 1 0 1 1 2 0 1 1 0 0 1-2 0M7.1 4.995a.905.905 0 1 1 1.8 0l-.35 3.507a.552.552 0 0 1-1.1 0z"/></symbol><symbol fill="currentColor" class="bgbi bgbi-file-earmark" viewBox="0 0 16 16" id="file-earmark" xmlns="http://www.w3.org/2000/svg"><path d="M14 4.5V14a2 2 0 0 1-2 2H4a2 2 0 0 1-2-2V2a2 2 0 0 1 2-2h5.5zm-3 0A1.5 1.5 0 0 1 9.5 3V1H4a1 1 0 0 0-1 1v12a1 1 0 0 0 1 1h8a1 1 0 0 0 1-1V4.5z"/></symbol><symbol fill="currentColor" class="bfbi bfbi-file-text" viewBox="0 0 16 16" id="file-text" xmlns="http://www.w3.org/2000/svg"><path d="M5 4a.5.5 0 0 0 0 1h6a.5.5 0 0 0 0-1zm-.5 2.5A.5.5 0 0 1 5 6h6a.5.5 0 0 1 0 1H5a.5.5 0 0 1-.5-.5M5 8a.5.5 0 0 0 0 1h6a.5.5 0 0 0 0-1zm0 2a.5.5 0 0 0 0 1h3a.5.5 0 0 0 0-1z"/><path d="M2 2a2 2 0 0 1 2-2h8a2 2 0 0 1 2 2v12a2 2 0 0 1-2 2H4a2 2 0 0 1-2-2zm10-1H4a1 1 0 0 0-1 1v12a1 1 0 0 0 1 1h8a1 1 0 0 0 1-1V2a1 1 0 0 0-1-1"/></symbol><symbol fill="currentColor" class="bebi bebi-folder" viewBox="0 0 16 16" id="folder" xmlns="http://www.w3.org/2000/svg"><path d="M.54 3.87.5 3a2 2 0 0 1 2-2h3.672a2 2 0 0 1 1.414.586l.828.828A2 2 0 0 0 9.828 3h3.982a2 2 0 0 1 1.992 2.181l-.637 7A2 2 0 0 1 13.174 14H2.826a2 2 0 0 1-1.991-1.819l-.637-7a2 2 0 0 1 .342-1.31zM2.19 4a1 1 0 0 0-.996 1.09l.637 7a1 1 0 0 0 .995.91h10.348a1 1 0 0 0 .995-.91l.637-7A1 1 0 0 0 13.81 4zm4.69-1.707A1 1 0 0 0 6.172 2H2.5a1 1 0 0 0-1 .981l.006.139q.323-.119.684-.12h5.396z"/></symbol><symbol fill="currentColor" class="bdbi bdbi-folder2-open" viewBox="0 0 16 16" id="folder2-open" xmlns="http://www.w3.org/2000/svg"><path d="M1 3.5A1.5 1.5 0 0 1 2.5 2h2.764c.958 0 1.76.56 2.311 1.184C7.985 3.648 8.48 4 9 4h4.5A1.5 1.5 0 0 1 15 5.5v.64c.57.265.94.876.856 1.546l-.64 5.124A2.5 2.5 0 0 1 12.733 15H3.266a2.5 2.5 0 0 1-2.481-2.19l-.64-5.124A1.5 1.5 0 0 1 1 6.14zM2 6h12v-.5a.5.5 0 0 0-.5-.5H9c-.964 0-1.71-.629-2.174-1.154C6.374 3.334 5.82 3 5.264 3H2.5a.5.5 0 0 0-.5.5zm-.367 1a.5.5 0 0 0-.496.562l.64 5.124A1.5 1.5 0 0 0 3.266 14h9.468a1.5 1.5 0 0 0 1.489-1.314l.64-5.124A.5.5 0 0 0 14.367 7z"/></symbol><symbol fill="currentColor" class="bcbi bcbi-gear" viewBox="0 0 16 16" id="gear" xmlns="http://www.w3.org/2000/svg"><path d="M8 4.754a3.246 3.246 0 1 0 0 6.492 3.246 3.246 0 0 0 0-6.492M5.754 8a2.246 2.246 0 1 1 4.492 0 2.246 2.246 0 0 1-4.492 0"/><path d="M9.796 1.343c-.527-1.79-3.065-1.79-3.592 0l-.094.319a.873.873 0 0 1-1.255.52l-.292-.16c-1.64-.892-3.433.902-2.54 2.541l.159.292a.873.873 0 0 1-.52 1.255l-.319.094c-1.79.527-1.79 3.065 0 3.592l.319.094a.873.873 0 0 1 .52 1.255l-.16.292c-.892 1.64.901 3.434 2.541 2.54l.292-.159a.873.873 0 0 1 1.255.52l.094.319c.527 1.79 3.065 1.79 3.592 0l.094-.319a.873.873 0 0 1 1.255-.52l.292.16c1.64.893 3.434-.902 2.54-2.541l-.159-.292a.873.873 0 0 1 .52-1.255l.319-.094c1.79-.527 1.79-3.065 0-3.592l-.319-.094a.873.873 0 0 1-.52-1.255l.16-.292c.893-1.64-.902-3.433-2.541-2.54l-.292.159a.873.873 0 0 1-1.255-.52zm-2.633.283c.246-.835 1.428-.835 1.674 0l.094.319a1.873 1.873 0 0 0 2.693 1.115l.291-.16c.764-.415 1.6.42 1.184 1.185l-.159.292a1.873 1.873 0 0 0 1.116 2.692l.318.094c.835.246.835 1.428 0 1.674l-.319.094a1.873 1.873 0 0 0-1.115 2.693l.16.291c.415.764-.42 1.6-1.185 1.184l-.291-.159a1.873 1.873 0 0 0-2.693 1.116l-.094.318c-.246.835-1.428.835-1.674 0l-.094-.319a1.873 1.873 0 0 0-2.692-1.115l-.292.16c-.764.415-1.6-.42-1.184-1.185l.159-.291A1.873 1.873 0 0 0 1.945 8.93l-.319-.094c-.835-.246-.835-1.428 0-1.674l.319-.094A1.873 1.873 0 0 0 3.06 4.377l-.16-.292c-.415-.764.42-1.6 1.185-1.184l.292.159a1.873 1.873 0 0 0 2.692-1.115z"/></symbol><symbol fill="currentColor" class="bbbi bbbi-globe" viewBox="0 0 16 16" id="globe" xmlns="http://www.w3.org/2000/svg"><path d="M0 8a8 8 0 1 1 16 0A8 8 0 0 1 0 8m7.5-6.923c-.67.204-1.335.82-1.887 1.855A8 8 0 0 0 5.145 4H7.5zM4.09 4a9.3 9.3 0 0 1 .64-1.539 7 7 0 0 1 .597-.933A7.03 7.03 0 0 0 2.255 4zm-.582 3.5c.03-.877.138-1.718.312-2.5H1.674a7 7 0 0 0-.656 2.5zM4.847 5a12.5 12.5 0 0 0-.338 2.5H7.5V5zM8.5 5v2.5h2.99a12.5 12.5 0 0 0-.337-2.5zM4.51 8.5a12.5 12.5 0 0 0 .337 2.5H7.5V8.5zm3.99 0V11h2.653c.187-.765.306-1.608.338-2.5zM5.145 12q.208.58.468 1.068c.552 1.035 1.218 1.65 1.887 1.855V12zm.182 2.472a7 7 0 0 1-.597-.933A9.3 9.3 0 0 1 4.09 12H2.255a7 7 0 0 0 3.072 2.472M3.82 11a13.7 13.7 0 0 1-.312-2.5h-2.49c.062.89.291 1.733.656 2.5zm6.853 3.472A7 7 0 0 0 13.745 12H11.91a9.3 9.3 0 0 1-.64 1.539 7 7 0 0 1-.597.933M8.5 12v2.923c.67-.204 1.335-.82 1.887-1.855q.26-.487.468-1.068zm3.68-1h2.146c.365-.767.594-1.61.656-2.5h-2.49a13.7 13.7 0 0 1-.312 2.5m2.802-3.5a7 7 0 0 0-.656-2.5H12.18c.174.782.282 1.623.312 2.5zM11.27 2.461c.247.464.462.98.64 1.539h1.835a7 7 0 0 0-3.072-2.472c.218.284.418.598.597.933M10.855 4a8 8 0 0 0-.468-1.068C9.835 1.897 9.17 1.282 8.5 1.077V4z"/></symbol><symbol fill="currentColor" class="babi babi-graph-down" viewBox="0 0 16 16" id="graph-down" xmlns="http://www.w3.org/2000/svg"><path fill-rule="evenodd" d="M0 0h1v15h15v1H0zm14.817 11.887a.5.5 0 0 0 .07-.704l-4.5-5.5a.5.5 0 0 0-.74-.037L7.06 8.233 3.404 3.206a.5.5 0 0 0-.808.588l4 5.5a.5.5 0 0 0 .758.06l2.609-2.61 4.15 5.073a.5.5 0 0 0 .704.07"/></symbol><symbol fill="currentColor" class="azbi azbi-heart" viewBox="0 0 16 16" id="heart" xmlns="http://www.w3.org/2000/svg"><path d="m8 2.748-.717-.737C5.6.281 2.514.878 1.4 3.053c-.523 1.023-.641 2.5.314 4.385.92 1.815 2.834 3.989 6.286 6.357 3.452-2.368 5.365-4.542 6.286-6.357.955-1.886.838-3.362.314-4.385C13.486.878 10.4.28 8.717 2.01zM8 15C-7.333 4.868 3.279-3.04 7.824 1.143q.09.083.176.171a3 3 0 0 1 .176-.17C12.72-3.042 23.333 4.867 8 15"/></symbol><symbol fill="currentColor" class="aybi aybi-house" viewBox="0 0 16 16" id="house" xmlns="http://www.w3.org/2000/svg"><path d="M8.707 1.5a1 1 0 0 0-1.414 0L.646 8.146a.5.5 0 0 0 .708.708L2 8.207V13.5A1.5 1.5 0 0 0 3.5 15h9a1.5 1.5 0 0 0 1.5-1.5V8.207l.646.647a.5.5 0 0 0 .708-.708L13 5.793V2.5a.5.5 0 0 0-.5-.5h-1a.5.5 0 0 0-.5.5v1.293zM13 7.207V13.5a.5.5 0 0 1-.5.5h-9a.5.5 0 0 1-.5-.5V7.207l5-5z"/></symbol><symbol fill="currentColor" class="axbi axbi-info-circle" viewBox="0 0 16 16" id="info-circle" xmlns="http://www.w3.org/2000/svg"><path d="M8 15A7 7 0 1 1 8 1a7 7 0 0 1 0 14m0 1A8 8 0 1 0 8 0a8 8 0 0 0 0 16"/><path d="m8.93 6.588-2.29.287-.082.38.45.083c.294.07.352.176.288.469l-.738 3.468c-.194.897.105 1.319.808 1.319.545 0 1.178-.252 1.465-.598l.088-.416c-.2.176-.492.246-.686.246-.275 0-.375-.193-.304-.533zM9 4.5a1 1 0 1 1-2 0 1 1 0 0 1 2 0"/></symbol><symbol fill="currentColor" class="awbi awbi-layout-sidebar-inset" viewBox="0 0 16 16" id="layout-sidebar-inset" xmlns="http://www.w3.org/2000/svg"><path d="M14 2a1 1 0 0 1 1 1v10a1 1 0 0 1-1 1H2a1 1 0 0 1-1-1V3a1 1 0 0 1 1-1zM2 1a2 2 0 0 0-2 2v10a2 2 0 0 0 2 2h12a2 2 0 0 0 2-2V3a2 2 0 0 0-2-2z"/><path d="M3 4a1 1 0 0 1 1-1h2a1 1 0 0 1 1 1v8a1 1 0 0 1-1 1H4a1 1 0 0 1-1-1z"/></symbol><symbol fill="currentColor" class="avbi avbi-list" viewBox="0 0 16 16" id="list" xmlns="http://www.w3.org/2000/svg"><path fill-rule="evenodd" d="M2.5 12a.5.5 0 0 1 .5-.5h10a.5.5 0 0 1 0 1H3a.5.5 0 0 1-.5-.5m0-4a.5.5 0 0 1 .5-.5h10a.5.5 0 0 1 0 1H3a.5.5 0 0 1-.5-.5m0-4a.5.5 0 0 1 .5-.5h10a.5.5 0 0 1 0 1H3a.5.5 0 0 1-.5-.5"/></symbol><symbol fill="currentColor" class="aubi aubi-lock" viewBox="0 0 16 16" id="lock" xmlns="http://www.w3.org/2000/svg"><path fill-rule="evenodd" d="M8 0a4 4 0 0 1 4 4v2.05a2.5 2.5 0 0 1 2 2.45v5a2.5 2.5 0 0 1-2.5 2.5h-7A2.5 2.5 0 0 1 2 13.5v-5a2.5 2.5 0 0 1 2-2.45V4a4 4 0 0 1 4-4M4.5 7A1.5 1.5 0 0 0 3 8.5v5A1.5 1.5 0 0 0 4.5 15h7a1.5 1.5 0 0 0 1.5-1.5v-5A1.5 1.5 0 0 0 11.5 7zM8 1a3 3 0 0 0-3 3v2h6V4a3 3 0 0 0-3-3"/></symbol><symbol fill="currentColor" class="atbi atbi-moon" viewBox="0 0 16 16" id="moon" xmlns="http://www.w3.org/2000/svg"><path d="M6 .278a.77.77 0 0 1 .08.858 7.2 7.2 0 0 0-.878 3.46c0 4.021 3.278 7.277 7.318 7.277q.792-.001 1.533-.16a.79.79 0 0 1 .81.316.73.73 0 0 1-.031.893A8.35 8.35 0 0 1 8.344 16C3.734 16 0 12.286 0 7.71 0 4.266 2.114 1.312 5.124.06A.75.75 0 0 1 6 .278M4.858 1.311A7.27 7.27 0 0 0 1.025 7.71c0 4.02 3.279 7.276 7.319 7.276a7.32 7.32 0 0 0 5.205-2.162q-.506.063-1.029.063c-4.61 0-8.343-3.714-8.343-8.29 0-1.167.242-2.278.681-3.286"/></symbol><symbol fill-rule="evenodd" viewBox="0 0 16 16" id="ogis-logo" xmlns="http://www.w3.org/2000/svg"><path d="M7.777 4.004v3.749H.182v.17h7.76V.256h-.165ZM3.69 1.286A2.45 2.45 0 0 0 1.995 2.3a2.6 2.6 0 0 0-.476 1.733c.113 1.247 1.033 2.201 2.24 2.324.326.033.7-.015 1.029-.131 1.18-.42 1.88-1.72 1.6-2.971a2.54 2.54 0 0 0-.702-1.278 2.4 2.4 0 0 0-1.489-.698 1.7 1.7 0 0 0-.507.007m8.455.053-.204.043a1.6 1.6 0 0 0-.826.448c-.323.322-.503.733-.608 1.382-.043.267-.043 1.071 0 1.355.129.858.485 1.434 1.057 1.713.278.135.566.188.943.173a1.86 1.86 0 0 0 1.128-.41l.086-.066V3.715h-1.47v.8h.645v.969l-.07.035c-.113.056-.236.075-.417.065-.51-.027-.805-.384-.929-1.12a6 6 0 0 1-.008-1.099c.086-.619.31-.971.709-1.118.149-.055.45-.063.634-.018.26.065.401.147.614.359l.128.128-.005-.536-.004-.535-.103-.062a2 2 0 0 0-.514-.206 2 2 0 0 0-.448-.04 4 4 0 0 0-.338.002m-8.48.222a3 3 0 0 0-.326.076c-.168.05-.499.206-.499.236 0 .022.045.035.123.035.095 0 .116.028.09.119-.024.082-.006.112.032.052.015-.024.05-.067.08-.097s.055-.066.055-.081c0-.053.047-.144.09-.173.059-.04.115-.012.14.069.023.069.042.073.147.032.072-.029.074-.029.104.01.017.022.03.064.03.094 0 .034.014.067.034.086.044.042.042.104-.005.136a.7.7 0 0 1-.167.05c-.15.03-.179.049-.165.106.023.095 0 .119-.214.225-.172.086-.214.114-.268.184a1 1 0 0 1-.098.108c-.099.074-.123.115-.125.208-.003.135-.018.176-.065.176-.046 0-.115-.093-.115-.154 0-.032-.012-.04-.076-.05-.065-.01-.081-.006-.11.025q-.033.037-.069.028c-.053-.014-.131.043-.18.134q-.075.14-.018.226c.047.07.172.031.172-.053 0-.023.017-.028.083-.028.073 0 .082.004.082.036 0 .02-.015.063-.035.095-.019.032-.03.063-.023.07a.2.2 0 0 0 .08.012h.07v.255l.08-.005q.08-.006.094.017c.01.017.032.004.085-.05.076-.077.117-.088.19-.05a.5.5 0 0 0 .142.034c.113.011.16.04.22.131.038.06.05.068.108.068.084 0 .15.041.184.114.03.065.035.135.01.15a.04.04 0 0 0-.016.029q0 .018.088.006c.074-.01.092-.006.116.022.018.021.062.037.118.045a.32.32 0 0 1 .229.132c.032.045.032.05.006.106-.015.033-.05.091-.077.13-.043.061-.05.088-.052.176 0 .119-.045.281-.081.302-.014.008-.06.03-.105.051s-.083.05-.088.064l-.066.184c-.056.15-.094.21-.135.21-.01 0-.019.025-.019.056 0 .068-.025.097-.082.097-.035 0-.046.012-.062.068-.04.129-.038.13.26.179.418.07.893-.01 1.296-.216.22-.112.397-.245.578-.43.146-.151.305-.36.305-.403a.4.4 0 0 0-.035-.098c-.034-.07-.034-.082-.014-.18.034-.16.028-.261-.022-.368a1 1 0 0 0-.068-.128c-.022-.03-.021-.042.008-.108q.05-.121-.03-.122a.3.3 0 0 1-.09-.044l-.062-.045-.104.027a2 2 0 0 1-.21.038l-.108.011-.105-.081c-.15-.118-.233-.23-.233-.32 0-.167.032-.28.117-.423.22-.371.232-.383.414-.423.248-.054.358-.072.375-.062.009.006.021.034.027.063s.024.056.039.061l.139.061a.4.4 0 0 0 .121.042c.023-.024-.165-.362-.267-.48l-.058-.067-.048.03c-.029.017-.064.025-.087.019-.045-.012-.088.029-.15.142s-.182.163-.274.114c-.057-.03-.059-.04-.032-.16l.02-.087h.101c.057 0 .11-.01.121-.02.032-.034.024-.117-.016-.15l-.036-.03.056-.02c.093-.033.158-.121.09-.121q-.023.002-.025.015c0 .017-.129.045-.142.03-.005-.004.003-.031.017-.06a.2.2 0 0 0 .026-.074c0-.03-.209-.168-.38-.25a2.13 2.13 0 0 0-1.254-.196m-1.88 1.945c-.023.06-.01.587.018.73.13.655.497 1.199 1.038 1.538.18.112.172.117.166-.096-.003-.1-.012-.19-.02-.199s-.016-.117-.016-.24v-.224l-.113-.092a.5.5 0 0 1-.157-.186 1 1 0 0 0-.097-.167c-.047-.065-.054-.089-.06-.2l-.006-.128.068-.075c.064-.072.067-.08.058-.158-.015-.128-.015-.128-.08-.089l-.057.035-.076-.072a.5.5 0 0 1-.1-.129c-.018-.046-.031-.056-.071-.056-.073 0-.13-.028-.142-.068-.009-.026-.025-.035-.07-.035a.4.4 0 0 1-.165-.06c-.095-.053-.106-.056-.117-.03m6.485 4.333v.085h7.596v-.17H8.272Zm-.495 4.175v3.748h.165V8.264h-.165Zm3.98-2.665a1.8 1.8 0 0 0-.545.172.9.9 0 0 0-.339.25c-.17.177-.263.343-.325.581a2.3 2.3 0 0 0-.007.801c.125.497.44.756 1.348 1.108.186.072.38.153.43.181.232.127.36.316.375.552.018.29-.113.505-.373.614-.147.062-.444.077-.68.034a2.7 2.7 0 0 1-.97-.417l-.153-.102v1.005l.111.052c.187.086.48.184.69.23.244.053.744.074 1.01.042q1.002-.12 1.244-.9c.12-.39.103-.874-.044-1.22a1.2 1.2 0 0 0-.287-.41c-.216-.21-.381-.302-.924-.513-.6-.232-.753-.325-.84-.505a.51.51 0 0 1 .205-.67c.112-.068.242-.096.453-.096.396 0 .748.112 1.107.35l.127.084c.017.01.021-.087.021-.462v-.474l-.159-.064a3.7 3.7 0 0 0-.642-.193 5.4 5.4 0 0 0-.834-.03m-9.213.5v.427H3.5v3.254h-.958v.852h2.856v-.851l-.474-.005-.475-.004-.004-1.623-.005-1.623h.96v-.852H2.543Z"/></symbol><symbol fill="currentColor" class="arbi arbi-pause-circle" viewBox="0 0 16 16" id="pause-circle" xmlns="http://www.w3.org/2000/svg"><path d="M8 15A7 7 0 1 1 8 1a7 7 0 0 1 0 14m0 1A8 8 0 1 0 8 0a8 8 0 0 0 0 16"/><path d="M5 6.25a1.25 1.25 0 1 1 2.5 0v3.5a1.25 1.25 0 1 1-2.5 0zm3.5 0a1.25 1.25 0 1 1 2.5 0v3.5a1.25 1.25 0 1 1-2.5 0z"/></symbol><symbol fill="currentColor" class="aqbi aqbi-pencil" viewBox="0 0 16 16" id="pencil" xmlns="http://www.w3.org/2000/svg"><path d="M12.146.146a.5.5 0 0 1 .708 0l3 3a.5.5 0 0 1 0 .708l-10 10a.5.5 0 0 1-.168.11l-5 2a.5.5 0 0 1-.65-.65l2-5a.5.5 0 0 1 .11-.168zM11.207 2.5 13.5 4.793 14.793 3.5 12.5 1.207zm1.586 3L10.5 3.207 4 9.707V10h.5a.5.5 0 0 1 .5.5v.5h.5a.5.5 0 0 1 .5.5v.5h.293zm-9.761 5.175-.106.106-1.528 3.821 3.821-1.528.106-.106A.5.5 0 0 1 5 12.5V12h-.5a.5.5 0 0 1-.5-.5V11h-.5a.5.5 0 0 1-.468-.325"/></symbol><symbol fill="currentColor" class="apbi apbi-person-circle" viewBox="0 0 16 16" id="person-circle" xmlns="http://www.w3.org/2000/svg"><path d="M11 6a3 3 0 1 1-6 0 3 3 0 0 1 6 0"/><path fill-rule="evenodd" d="M0 8a8 8 0 1 1 16 0A8 8 0 0 1 0 8m8-7a7 7 0 0 0-5.468 11.37C3.242 11.226 4.805 10 8 10s4.757 1.225 5.468 2.37A7 7 0 0 0 8 1"/></symbol><symbol fill="currentColor" class="aobi aobi-plus-circle" viewBox="0 0 16 16" id="plus-circle" xmlns="http://www.w3.org/2000/svg"><path d="M8 15A7 7 0 1 1 8 1a7 7 0 0 1 0 14m0 1A8 8 0 1 0 8 0a8 8 0 0 0 0 16"/><path d="M8 4a.5.5 0 0 1 .5.5v3h3a.5.5 0 0 1 0 1h-3v3a.5.5 0 0 1-1 0v-3h-3a.5.5 0 0 1 0-1h3v-3A.5.5 0 0 1 8 4"/></symbol><symbol fill-rule="evenodd" viewBox="0 0 16 16" id="position" xmlns="http://www.w3.org/2000/svg"><path d="M7.875 2.635c-.21.106-.275.206-.275.422 0 .18-.01.19-.187.219-1.69.27-2.956 1.185-3.662 2.642-.25.516-.451 1.168-.451 1.466 0 .152-.013.166-.152.166-.338 0-.571.257-.512.564.035.184.184.3.425.333l.207.028.065.38c.234 1.391 1.16 2.667 2.426 3.34.46.245.849.383 1.391.494l.425.088.027.199c.034.256.076.32.263.398.3.126.585-.083.585-.428v-.181l.348-.058c1.845-.304 3.366-1.71 3.83-3.537.067-.266.122-.536.122-.601 0-.098.026-.119.147-.119.247 0 .403-.088.48-.272.124-.296-.058-.565-.414-.613l-.194-.026-.083-.44a4.6 4.6 0 0 0-1.208-2.336 6 6 0 0 0-.708-.643c-.562-.401-1.395-.732-2.133-.845-.178-.028-.187-.039-.187-.218 0-.133-.034-.22-.112-.292-.204-.186-.3-.212-.463-.13m-.653 2.04c-1.21.326-2.09 1.142-2.48 2.3-.1.302-.117.446-.116 1.05 0 .633.013.735.133 1.067.2.546.421.888.866 1.333 1.118 1.119 2.773 1.324 4.147.514.695-.41 1.247-1.108 1.513-1.914.113-.345.132-.486.133-1.025 0-.553-.015-.67-.137-1.025-.399-1.159-1.274-1.986-2.411-2.276-.457-.117-1.26-.129-1.648-.024M7.5 6.022a2.1 2.1 0 0 0-1.48 1.495 1.87 1.87 0 0 0 .008 1.01c.403 1.55 2.369 2.06 3.466.9 1.077-1.14.547-3.005-.967-3.4A2 2 0 0 0 7.5 6.023m.058 1.135c-.598.297-.684 1.168-.158 1.61.466.392 1.193.23 1.47-.326.142-.284.157-.418.078-.702-.158-.57-.839-.854-1.39-.582"/></symbol><symbol fill-rule="evenodd" viewBox="0 0 16 16" id="position-heading" xmlns="http://www.w3.org/2000/svg"><path d="M7.935.416c-.021.056-1.574 2.481-2.207 3.448l-.09.135.218-.076A7 7 0 0 1 8.4 3.575c.517.035 1.306.179 1.65.3.118.042.225.066.237.055s-.09-.187-.225-.389-.635-.973-1.11-1.716C7.993.33 7.977.307 7.935.416m-.894 3.782a3.98 3.98 0 0 0-2.883 3.06c-.08.39-.081.392-.24.392-.173 0-.368.186-.368.35s.195.35.367.35h.16l.088.424A3.92 3.92 0 0 0 6.5 11.633c.206.088.521.187.7.22.457.084.45.08.45.218 0 .182.2.392.375.392.183 0 .375-.213.375-.416 0-.126.019-.147.134-.147.215 0 .76-.152 1.11-.309a4 4 0 0 0 1.209-.873c.618-.653.861-1.163 1.077-2.255.018-.09.056-.113.192-.113.316 0 .473-.37.253-.595a.6.6 0 0 0-.256-.1l-.187-.03-.062-.35c-.256-1.467-1.402-2.684-2.892-3.072-.516-.134-1.443-.137-1.937-.005m.215 1.081c-.719.193-1.45.8-1.77 1.471-.228.474-.283.718-.285 1.252a2.77 2.77 0 0 0 1.303 2.397c.826.533 1.876.585 2.793.138.444-.217 1.023-.795 1.24-1.24.407-.834.413-1.68.019-2.522-.313-.667-.96-1.226-1.687-1.457-.44-.14-1.174-.157-1.613-.039m.34 1.09c-.904.243-1.45 1.152-1.223 2.039.175.684.684 1.153 1.4 1.287.3.056.805-.043 1.1-.216.592-.347.952-1.101.823-1.724-.154-.745-.637-1.25-1.336-1.399-.326-.069-.47-.067-.764.012m.054.941c-.457.235-.578.834-.247 1.212.193.22.393.297.691.268.294-.028.541-.191.637-.42.302-.724-.398-1.41-1.081-1.06"/></symbol><symbol fill-rule="evenodd" viewBox="0 0 16 16" id="position-lock" xmlns="http://www.w3.org/2000/svg"><path d="M7.875 2.635c-.21.106-.275.206-.275.422 0 .18-.01.19-.187.219-1.69.27-2.956 1.185-3.662 2.642-.25.516-.451 1.168-.451 1.466 0 .152-.013.166-.152.166-.338 0-.571.257-.512.564.035.184.184.3.425.333l.207.028.065.38c.234 1.391 1.16 2.667 2.426 3.34.46.245.849.383 1.391.494l.425.088.027.199c.034.256.076.32.263.398.3.126.585-.083.585-.428v-.181l.348-.058c1.845-.304 3.366-1.71 3.83-3.537.067-.266.122-.536.122-.601 0-.098.026-.119.147-.119.247 0 .403-.088.48-.272.124-.296-.058-.565-.414-.613l-.194-.026-.083-.44a4.6 4.6 0 0 0-1.208-2.336 6 6 0 0 0-.708-.643c-.562-.401-1.395-.732-2.133-.845-.178-.028-.187-.039-.187-.218 0-.133-.034-.22-.112-.292-.204-.186-.3-.212-.463-.13m-.653 2.04c-1.21.326-2.09 1.142-2.48 2.3-.1.302-.117.446-.116 1.05 0 .633.013.735.133 1.067.2.546.421.888.866 1.333 1.118 1.119 2.773 1.324 4.147.514.695-.41 1.247-1.108 1.513-1.914.113-.345.132-.486.133-1.025 0-.553-.015-.67-.137-1.025-.399-1.159-1.274-1.986-2.411-2.276-.457-.117-1.26-.129-1.648-.024m.422 1.191c-.514.192-.752.547-.785 1.167-.014.274-.042.417-.08.417-.088 0-.365.304-.426.466-.03.077-.053.482-.052.9 0 .692.01.777.113.959a.8.8 0 0 0 .334.313c.21.105.284.112 1.252.112s1.042-.007 1.252-.112a.8.8 0 0 0 .334-.313c.102-.182.112-.267.113-.96 0-.477-.021-.812-.058-.9-.072-.17-.338-.465-.42-.465-.038 0-.066-.144-.08-.422-.02-.358-.045-.458-.17-.661-.276-.445-.873-.67-1.327-.501m.123.437c-.314.094-.494.437-.458.874l.016.198h1.35l.014-.275c.028-.582-.4-.953-.922-.797"/></symbol><symbol fill="currentColor" class="akbi akbi-question-circle" viewBox="0 0 16 16" id="question-circle" xmlns="http://www.w3.org/2000/svg"><path d="M8 15A7 7 0 1 1 8 1a7 7 0 0 1 0 14m0 1A8 8 0 1 0 8 0a8 8 0 0 0 0 16"/><path d="M5.255 5.786a.237.237 0 0 0 .241.247h.825c.138 0 .248-.113.266-.25.09-.656.54-1.134 1.342-1.134.686 0 1.314.343 1.314 1.168 0 .635-.374.927-.965 1.371-.673.489-1.206 1.06-1.168 1.987l.003.217a.25.25 0 0 0 .25.246h.811a.25.25 0 0 0 .25-.25v-.105c0-.718.273-.927 1.01-1.486.609-.463 1.244-.977 1.244-2.056 0-1.511-1.276-2.241-2.673-2.241-1.267 0-2.655.59-2.75 2.286m1.557 5.763c0 .533.425.927 1.01.927.609 0 1.028-.394 1.028-.927 0-.552-.42-.94-1.029-.94-.584 0-1.009.388-1.009.94"/></symbol><symbol fill="currentColor" class="ajbi ajbi-record-btn-fill" viewBox="0 0 16 16" id="record-btn-fill" xmlns="http://www.w3.org/2000/svg"><path d="M0 12V4a2 2 0 0 1 2-2h12a2 2 0 0 1 2 2v8a2 2 0 0 1-2 2H2a2 2 0 0 1-2-2m8-1a3 3 0 1 0 0-6 3 3 0 0 0 0 6"/></symbol><symbol fill-rule="evenodd" viewBox="0 0 16 16" id="route" xmlns="http://www.w3.org/2000/svg"><path d="M13.8.587c-.798.1-1.338.564-1.529 1.311a1.6 1.6 0 0 0-.051.587c.028.244.197.68.337.87.049.068-.124.423-1.017 2.092l-1.076 2.01-.295.016c-.448.025-1.069.317-1.233.58-.066.107-.172.122-.346.049a40 40 0 0 0-1.146-.376L6.413 7.4l-.033-.202c-.079-.494-.41-.941-.889-1.2-.296-.16-.346-.17-.791-.17-.569-.001-.835.105-1.216.485a1.706 1.706 0 0 0-.212 2.156c.098.147.178.287.178.312s-.31.754-.689 1.62l-.688 1.575-.285.036c-.886.11-1.501.826-1.501 1.745 0 .486.145.822.51 1.182a1.695 1.695 0 0 0 2.346.037c.618-.558.722-1.555.237-2.26l-.17-.248.162-.371.7-1.604.536-1.234.259-.033c.357-.047.77-.242 1.014-.482l.207-.202 1.068.31c1.435.414 1.312.354 1.414.69.166.54.517.945 1.018 1.173.359.163.992.153 1.362-.02a1.83 1.83 0 0 0 .836-.836c.122-.25.139-.34.139-.758 0-.453-.009-.49-.182-.804l-.181-.329.135-.246c.074-.135.503-.932.952-1.771s.874-1.63.945-1.757l.129-.231.33-.024c1.374-.098 2.112-1.69 1.264-2.726-.337-.411-1.01-.69-1.517-.625m-.082 1.263c-.278.112-.36.537-.147.766.154.166.34.212.532.133.206-.086.297-.232.297-.48 0-.349-.34-.557-.682-.42m-9.25 5.248c-.233.1-.345.465-.216.706.08.152.336.26.527.225.51-.096.486-.888-.029-.954a.7.7 0 0 0-.282.023m5.556 1.623c-.17.074-.274.26-.274.486 0 .209.238.444.45.444.312 0 .496-.172.498-.466.003-.254-.071-.378-.275-.463-.203-.085-.207-.085-.4-.001m-8.377 4.676c-.397.397.05 1.04.547.783.184-.095.257-.217.257-.429 0-.221-.082-.347-.277-.43-.25-.103-.364-.087-.527.076"/></symbol><symbol fill="currentColor" class="ahbi ahbi-search" viewBox="0 0 16 16" id="search" xmlns="http://www.w3.org/2000/svg"><path d="M11.742 10.344a6.5 6.5 0 1 0-1.397 1.398h-.001q.044.06.098.115l3.85 3.85a1 1 0 0 0 1.415-1.414l-3.85-3.85a1 1 0 0 0-.115-.1zM12 6.5a5.5 5.5 0 1 1-11 0 5.5 5.5 0 0 1 11 0"/></symbol><symbol fill-rule="evenodd" viewBox="0 0 16 16" id="sidebar-info" xmlns="http://www.w3.org/2000/svg"><path d="M2.32 1.92c-.51.125-.936.476-1.182.976l-.113.229v9.75l.132.282c.169.36.476.667.836.836l.282.132 5.659.013c5.64.013 5.66.013 5.94-.091.52-.195.939-.625 1.088-1.114.049-.161.063-1.274.063-4.958v-4.75l-.141-.305a1.93 1.93 0 0 0-.909-.905l-.3-.14-5.55-.009c-4.3-.007-5.608.006-5.806.054m-.04.943a.85.85 0 0 0-.313.332l-.116.22V8.02c0 5.161-.027 4.787.367 5.102l.192.153 5.483.015c3.829.01 5.54-.002 5.67-.04.273-.079.52-.357.585-.657s.07-8.804.007-9.136a.88.88 0 0 0-.403-.594l-.166-.113H8.03l-5.555.002Zm1.096.762a1 1 0 0 0-.571.608c-.086.31-.07 7.287.018 7.533.086.24.202.368.444.492.175.09.282.096 1.303.082 1.11-.015 1.114-.015 1.314-.148.387-.256.367-.029.367-4.214 0-3.038-.013-3.762-.068-3.894-.087-.209-.333-.416-.571-.482-.29-.08-1.993-.063-2.236.023m1.208 1.982c-.158.091-.247.374-.181.573.137.415.877.433 1.046.026a.48.48 0 0 0-.134-.555c-.142-.113-.57-.138-.731-.044m-.164 1.545c-.52.103-.619.146-.619.273 0 .1.037.131.2.175.11.03.2.072.2.095s-.112.55-.25 1.175c-.369 1.673-.352 1.764.311 1.718.484-.034.839-.187.839-.361 0-.114-.02-.127-.197-.127-.108 0-.206-.017-.218-.037s.11-.657.27-1.413.292-1.414.293-1.463c.002-.074-.043-.086-.31-.082a4 4 0 0 0-.519.047"/></symbol><symbol fill="currentColor" class="afbi afbi-speedometer2" viewBox="0 0 16 16" id="speedometer2" xmlns="http://www.w3.org/2000/svg"><path d="M8 4a.5.5 0 0 1 .5.5V6a.5.5 0 0 1-1 0V4.5A.5.5 0 0 1 8 4M3.732 5.732a.5.5 0 0 1 .707 0l.915.914a.5.5 0 1 1-.708.708l-.914-.915a.5.5 0 0 1 0-.707M2 10a.5.5 0 0 1 .5-.5h1.586a.5.5 0 0 1 0 1H2.5A.5.5 0 0 1 2 10m9.5 0a.5.5 0 0 1 .5-.5h1.5a.5.5 0 0 1 0 1H12a.5.5 0 0 1-.5-.5m.754-4.246a.39.39 0 0 0-.527-.02L7.547 9.31a.91.91 0 1 0 1.302 1.258l3.434-4.297a.39.39 0 0 0-.029-.518z"/><path fill-rule="evenodd" d="M0 10a8 8 0 1 1 15.547 2.661c-.442 1.253-1.845 1.602-2.932 1.25C11.309 13.488 9.475 13 8 13c-1.474 0-3.31.488-4.615.911-1.087.352-2.49.003-2.932-1.25A8 8 0 0 1 0 10m8-7a7 7 0 0 0-6.603 9.329c.203.575.923.876 1.68.63C4.397 12.533 6.358 12 8 12s3.604.532 4.923.96c.757.245 1.477-.056 1.68-.631A7 7 0 0 0 8 3"/></symbol><symbol fill="currentColor" class="aebi aebi-sun" viewBox="0 0 16 16" id="sun" xmlns="http://www.w3.org/2000/svg"><path d="M8 11a3 3 0 1 1 0-6 3 3 0 0 1 0 6m0 1a4 4 0 1 0 0-8 4 4 0 0 0 0 8M8 0a.5.5 0 0 1 .5.5v2a.5.5 0 0 1-1 0v-2A.5.5 0 0 1 8 0m0 13a.5.5 0 0 1 .5.5v2a.5.5 0 0 1-1 0v-2A.5.5 0 0 1 8 13m8-5a.5.5 0 0 1-.5.5h-2a.5.5 0 0 1 0-1h2a.5.5 0 0 1 .5.5M3 8a.5.5 0 0 1-.5.5h-2a.5.5 0 0 1 0-1h2A.5.5 0 0 1 3 8m10.657-5.657a.5.5 0 0 1 0 .707l-1.414 1.415a.5.5 0 1 1-.707-.708l1.414-1.414a.5.5 0 0 1 .707 0m-9.193 9.193a.5.5 0 0 1 0 .707L3.05 13.657a.5.5 0 0 1-.707-.707l1.414-1.414a.5.5 0 0 1 .707 0m9.193 2.121a.5.5 0 0 1-.707 0l-1.414-1.414a.5.5 0 0 1 .707-.707l1.414 1.414a.5.5 0 0 1 0 .707M4.464 4.465a.5.5 0 0 1-.707 0L2.343 3.05a.5.5 0 1 1 .707-.707l1.414 1.414a.5.5 0 0 1 0 .708"/></symbol><symbol fill="currentColor" class="adbi adbi-three-dots" viewBox="0 0 16 16" id="three-dots" xmlns="http://www.w3.org/2000/svg"><path d="M3 9.5a1.5 1.5 0 1 1 0-3 1.5 1.5 0 0 1 0 3m5 0a1.5 1.5 0 1 1 0-3 1.5 1.5 0 0 1 0 3m5 0a1.5 1.5 0 1 1 0-3 1.5 1.5 0 0 1 0 3"/></symbol><symbol fill="currentColor" class="acbi acbi-trash" viewBox="0 0 16 16" id="trash" xmlns="http://www.w3.org/2000/svg"><path d="M5.5 5.5A.5.5 0 0 1 6 6v6a.5.5 0 0 1-1 0V6a.5.5 0 0 1 .5-.5m2.5 0a.5.5 0 0 1 .5.5v6a.5.5 0 0 1-1 0V6a.5.5 0 0 1 .5-.5m3 .5a.5.5 0 0 0-1 0v6a.5.5 0 0 0 1 0z"/><path d="M14.5 3a1 1 0 0 1-1 1H13v9a2 2 0 0 1-2 2H5a2 2 0 0 1-2-2V4h-.5a1 1 0 0 1-1-1V2a1 1 0 0 1 1-1H6a1 1 0 0 1 1-1h2a1 1 0 0 1 1 1h3.5a1 1 0 0 1 1 1zM4.118 4 4 4.059V13a1 1 0 0 0 1 1h6a1 1 0 0 0 1-1V4.059L11.882 4zM2.5 3h11V2h-11z"/></symbol><symbol fill="currentColor" class="aabi aabi-x" viewBox="0 0 16 16" id="x" xmlns="http://www.w3.org/2000/svg"><path d="M4.646 4.646a.5.5 0 0 1 .708 0L8 7.293l2.646-2.647a.5.5 0 0 1 .708.708L8.707 8l2.647 2.646a.5.5 0 0 1-.708.708L8 8.707l-2.646 2.647a.5.5 0 0 1-.708-.708L7.293 8 4.646 5.354a.5.5 0 0 1 0-.708"/></symbol><symbol fill="currentColor" class="abbi abbi-x-circle" viewBox="0 0 16 16" id="x-circle" xmlns="http://www.w3.org/2000/svg"><path d="M8 15A7 7 0 1 1 8 1a7 7 0 0 1 0 14m0 1A8 8 0 1 0 8 0a8 8 0 0 0 0 16"/><path d="M4.646 4.646a.5.5 0 0 1 .708 0L8 7.293l2.646-2.647a.5.5 0 0 1 .708.708L8.707 8l2.647 2.646a.5.5 0 0 1-.708.708L8 8.707l-2.646 2.647a.5.5 0 0 1-.708-.708L7.293 8 4.646 5.354a.5.5 0 0 1 0-.708"/></symbol></svg>