<svg xmlns="http://www.w3.org/2000/svg" fill-rule="evenodd" viewBox="0 0 16 16"><path d="M5.408 3.033a.35.35 0 0 0-.15.301v.183l-.486.1a4.48 4.48 0 0 0-3.266 2.668 4.6 4.6 0 0 0-.252.8c-.096.523-.092.515-.249.515-.208 0-.448.23-.448.429 0 .209.243.428.475.428.144 0 .168.022.168.154 0 .245.173.868.353 1.268.216.482.58.987.998 1.381.746.707 1.329.985 2.578 1.231.103.02.128.064.128.22a.4.4 0 0 0 .68.29c.044-.044.095-.175.115-.293l.035-.215.4-.07c1.675-.293 3.066-1.603 3.51-3.305.156-.605.16-1.6.008-2.188a4.53 4.53 0 0 0-3.5-3.32c-.446-.093-.448-.094-.448-.276 0-.196-.213-.42-.4-.42-.054 0-.167.054-.25.119m-.6 1.857C3.165 5.332 2.1 7.084 2.481 8.71a3.31 3.31 0 0 0 2.436 2.459c2.008.473 3.94-1.062 3.94-3.13 0-.958-.274-1.628-.941-2.302-.423-.427-.99-.755-1.516-.875-.367-.084-1.232-.069-1.593.028m5.427.818c.314.747.416 1.31.416 2.292 0 .954-.085 1.444-.39 2.255-.148.393-.153.495-.018.39.04-.032.844-.45 1.787-.93s2.083-1.065 2.534-1.3l.82-.428-1.905-.969a471 471 0 0 1-2.613-1.336c-.388-.202-.726-.368-.751-.368s.029.178.12.394m-5.091.38c-.99.275-1.601 1.256-1.395 2.239.172.822.724 1.364 1.59 1.558.521.117 1.249-.129 1.69-.57.923-.923.648-2.512-.534-3.084a1.92 1.92 0 0 0-1.351-.142m.207.999c-.386.115-.631.503-.595.94.03.356.21.637.48.75.828.346 1.613-.455 1.212-1.235a.91.91 0 0 0-1.097-.455m6.45-.031c-.031.01-.128.034-.214.053-.164.036-.222.204-.072.204.113 0 .11.036-.057.857-.078.386-.143.711-.143.723s.114.02.253.02h.252l.126-.557c.189-.834.299-1.006.541-.848.076.05.166.091.2.091.082 0 .244-.39.205-.492-.06-.159-.33-.088-.551.145l-.214.225.03-.225c.03-.217.025-.224-.134-.22-.09.002-.19.013-.222.024"/></svg>