<svg xmlns="http://www.w3.org/2000/svg" fill-rule="evenodd" viewBox="0 0 16 16"><path d="M7.777 4.004v3.749H.182v.17h7.76V.256h-.165ZM3.69 1.286A2.45 2.45 0 0 0 1.995 2.3a2.6 2.6 0 0 0-.476 1.733c.113 1.247 1.033 2.201 2.24 2.324.326.033.7-.015 1.029-.131 1.18-.42 1.88-1.72 1.6-2.971a2.54 2.54 0 0 0-.702-1.278 2.4 2.4 0 0 0-1.489-.698 1.7 1.7 0 0 0-.507.007m8.455.053-.204.043a1.6 1.6 0 0 0-.826.448c-.323.322-.503.733-.608 1.382-.043.267-.043 1.071 0 1.355.129.858.485 1.434 1.057 1.713.278.135.566.188.943.173a1.86 1.86 0 0 0 1.128-.41l.086-.066V3.715h-1.47v.8h.645v.969l-.07.035c-.113.056-.236.075-.417.065-.51-.027-.805-.384-.929-1.12a6 6 0 0 1-.008-1.099c.086-.619.31-.971.709-1.118.149-.055.45-.063.634-.018.26.065.401.147.614.359l.128.128-.005-.536-.004-.535-.103-.062a2 2 0 0 0-.514-.206 2 2 0 0 0-.448-.04 4 4 0 0 0-.338.002m-8.48.222a3 3 0 0 0-.326.076c-.168.05-.499.206-.499.236 0 .022.045.035.123.035.095 0 .116.028.09.119-.024.082-.006.112.032.052.015-.024.05-.067.08-.097s.055-.066.055-.081c0-.053.047-.144.09-.173.059-.04.115-.012.14.069.023.069.042.073.147.032.072-.029.074-.029.104.01.017.022.03.064.03.094 0 .034.014.067.034.086.044.042.042.104-.005.136a.7.7 0 0 1-.167.05c-.15.03-.179.049-.165.106.023.095 0 .119-.214.225-.172.086-.214.114-.268.184a1 1 0 0 1-.098.108c-.099.074-.123.115-.125.208-.003.135-.018.176-.065.176-.046 0-.115-.093-.115-.154 0-.032-.012-.04-.076-.05-.065-.01-.081-.006-.11.025q-.033.037-.069.028c-.053-.014-.131.043-.18.134q-.075.14-.018.226c.047.07.172.031.172-.053 0-.023.017-.028.083-.028.073 0 .082.004.082.036 0 .02-.015.063-.035.095-.019.032-.03.063-.023.07a.2.2 0 0 0 .08.012h.07v.255l.08-.005q.08-.006.094.017c.01.017.032.004.085-.05.076-.077.117-.088.19-.05a.5.5 0 0 0 .142.034c.113.011.16.04.22.131.038.06.05.068.108.068.084 0 .15.041.184.114.03.065.035.135.01.15a.04.04 0 0 0-.016.029q0 .018.088.006c.074-.01.092-.006.116.022.018.021.062.037.118.045a.32.32 0 0 1 .229.132c.032.045.032.05.006.106-.015.033-.05.091-.077.13-.043.061-.05.088-.052.176 0 .119-.045.281-.081.302-.014.008-.06.03-.105.051s-.083.05-.088.064l-.066.184c-.056.15-.094.21-.135.21-.01 0-.019.025-.019.056 0 .068-.025.097-.082.097-.035 0-.046.012-.062.068-.04.129-.038.13.26.179.418.07.893-.01 1.296-.216.22-.112.397-.245.578-.43.146-.151.305-.36.305-.403a.4.4 0 0 0-.035-.098c-.034-.07-.034-.082-.014-.18.034-.16.028-.261-.022-.368a1 1 0 0 0-.068-.128c-.022-.03-.021-.042.008-.108q.05-.121-.03-.122a.3.3 0 0 1-.09-.044l-.062-.045-.104.027a2 2 0 0 1-.21.038l-.108.011-.105-.081c-.15-.118-.233-.23-.233-.32 0-.167.032-.28.117-.423.22-.371.232-.383.414-.423.248-.054.358-.072.375-.062.009.006.021.034.027.063s.024.056.039.061l.139.061a.4.4 0 0 0 .121.042c.023-.024-.165-.362-.267-.48l-.058-.067-.048.03c-.029.017-.064.025-.087.019-.045-.012-.088.029-.15.142s-.182.163-.274.114c-.057-.03-.059-.04-.032-.16l.02-.087h.101c.057 0 .11-.01.121-.02.032-.034.024-.117-.016-.15l-.036-.03.056-.02c.093-.033.158-.121.09-.121q-.023.002-.025.015c0 .017-.129.045-.142.03-.005-.004.003-.031.017-.06a.2.2 0 0 0 .026-.074c0-.03-.209-.168-.38-.25a2.13 2.13 0 0 0-1.254-.196m-1.88 1.945c-.023.06-.01.587.018.73.13.655.497 1.199 1.038 1.538.18.112.172.117.166-.096-.003-.1-.012-.19-.02-.199s-.016-.117-.016-.24v-.224l-.113-.092a.5.5 0 0 1-.157-.186 1 1 0 0 0-.097-.167c-.047-.065-.054-.089-.06-.2l-.006-.128.068-.075c.064-.072.067-.08.058-.158-.015-.128-.015-.128-.08-.089l-.057.035-.076-.072a.5.5 0 0 1-.1-.129c-.018-.046-.031-.056-.071-.056-.073 0-.13-.028-.142-.068-.009-.026-.025-.035-.07-.035a.4.4 0 0 1-.165-.06c-.095-.053-.106-.056-.117-.03m6.485 4.333v.085h7.596v-.17H8.272Zm-.495 4.175v3.748h.165V8.264h-.165Zm3.98-2.665a1.8 1.8 0 0 0-.545.172.9.9 0 0 0-.339.25c-.17.177-.263.343-.325.581a2.3 2.3 0 0 0-.007.801c.125.497.44.756 1.348 1.108.186.072.38.153.43.181.232.127.36.316.375.552.018.29-.113.505-.373.614-.147.062-.444.077-.68.034a2.7 2.7 0 0 1-.97-.417l-.153-.102v1.005l.111.052c.187.086.48.184.69.23.244.053.744.074 1.01.042q1.002-.12 1.244-.9c.12-.39.103-.874-.044-1.22a1.2 1.2 0 0 0-.287-.41c-.216-.21-.381-.302-.924-.513-.6-.232-.753-.325-.84-.505a.51.51 0 0 1 .205-.67c.112-.068.242-.096.453-.096.396 0 .748.112 1.107.35l.127.084c.017.01.021-.087.021-.462v-.474l-.159-.064a3.7 3.7 0 0 0-.642-.193 5.4 5.4 0 0 0-.834-.03m-9.213.5v.427H3.5v3.254h-.958v.852h2.856v-.851l-.474-.005-.475-.004-.004-1.623-.005-1.623h.96v-.852H2.543Z"/></svg>