<svg xmlns="http://www.w3.org/2000/svg" fill-rule="evenodd" viewBox="0 0 16 16"><path d="M7.875 2.635c-.21.106-.275.206-.275.422 0 .18-.01.19-.187.219-1.69.27-2.956 1.185-3.662 2.642-.25.516-.451 1.168-.451 1.466 0 .152-.013.166-.152.166-.338 0-.571.257-.512.564.035.184.184.3.425.333l.207.028.065.38c.234 1.391 1.16 2.667 2.426 3.34.46.245.849.383 1.391.494l.425.088.027.199c.034.256.076.32.263.398.3.126.585-.083.585-.428v-.181l.348-.058c1.845-.304 3.366-1.71 3.83-3.537.067-.266.122-.536.122-.601 0-.098.026-.119.147-.119.247 0 .403-.088.48-.272.124-.296-.058-.565-.414-.613l-.194-.026-.083-.44a4.6 4.6 0 0 0-1.208-2.336 6 6 0 0 0-.708-.643c-.562-.401-1.395-.732-2.133-.845-.178-.028-.187-.039-.187-.218 0-.133-.034-.22-.112-.292-.204-.186-.3-.212-.463-.13m-.653 2.04c-1.21.326-2.09 1.142-2.48 2.3-.1.302-.117.446-.116 1.05 0 .633.013.735.133 1.067.2.546.421.888.866 1.333 1.118 1.119 2.773 1.324 4.147.514.695-.41 1.247-1.108 1.513-1.914.113-.345.132-.486.133-1.025 0-.553-.015-.67-.137-1.025-.399-1.159-1.274-1.986-2.411-2.276-.457-.117-1.26-.129-1.648-.024m.422 1.191c-.514.192-.752.547-.785 1.167-.014.274-.042.417-.08.417-.088 0-.365.304-.426.466-.03.077-.053.482-.052.9 0 .692.01.777.113.959a.8.8 0 0 0 .334.313c.21.105.284.112 1.252.112s1.042-.007 1.252-.112a.8.8 0 0 0 .334-.313c.102-.182.112-.267.113-.96 0-.477-.021-.812-.058-.9-.072-.17-.338-.465-.42-.465-.038 0-.066-.144-.08-.422-.02-.358-.045-.458-.17-.661-.276-.445-.873-.67-1.327-.501m.123.437c-.314.094-.494.437-.458.874l.016.198h1.35l.014-.275c.028-.582-.4-.953-.922-.797"/></svg>