<svg xmlns="http://www.w3.org/2000/svg" fill-rule="evenodd" viewBox="0 0 16 16"><path d="M7.935.416c-.021.056-1.574 2.481-2.207 3.448l-.09.135.218-.076A7 7 0 0 1 8.4 3.575c.517.035 1.306.179 1.65.3.118.042.225.066.237.055s-.09-.187-.225-.389-.635-.973-1.11-1.716C7.993.33 7.977.307 7.935.416m-.894 3.782a3.98 3.98 0 0 0-2.883 3.06c-.08.39-.081.392-.24.392-.173 0-.368.186-.368.35s.195.35.367.35h.16l.088.424A3.92 3.92 0 0 0 6.5 11.633c.206.088.521.187.7.22.457.084.45.08.45.218 0 .182.2.392.375.392.183 0 .375-.213.375-.416 0-.126.019-.147.134-.147.215 0 .76-.152 1.11-.309a4 4 0 0 0 1.209-.873c.618-.653.861-1.163 1.077-2.255.018-.09.056-.113.192-.113.316 0 .473-.37.253-.595a.6.6 0 0 0-.256-.1l-.187-.03-.062-.35c-.256-1.467-1.402-2.684-2.892-3.072-.516-.134-1.443-.137-1.937-.005m.215 1.081c-.719.193-1.45.8-1.77 1.471-.228.474-.283.718-.285 1.252a2.77 2.77 0 0 0 1.303 2.397c.826.533 1.876.585 2.793.138.444-.217 1.023-.795 1.24-1.24.407-.834.413-1.68.019-2.522-.313-.667-.96-1.226-1.687-1.457-.44-.14-1.174-.157-1.613-.039m.34 1.09c-.904.243-1.45 1.152-1.223 2.039.175.684.684 1.153 1.4 1.287.3.056.805-.043 1.1-.216.592-.347.952-1.101.823-1.724-.154-.745-.637-1.25-1.336-1.399-.326-.069-.47-.067-.764.012m.054.941c-.457.235-.578.834-.247 1.212.193.22.393.297.691.268.294-.028.541-.191.637-.42.302-.724-.398-1.41-1.081-1.06"/></svg>