<svg xmlns="http://www.w3.org/2000/svg" fill-rule="evenodd" viewBox="0 0 16 16"><path d="M13.8.587c-.798.1-1.338.564-1.529 1.311a1.6 1.6 0 0 0-.051.587c.028.244.197.68.337.87.049.068-.124.423-1.017 2.092l-1.076 2.01-.295.016c-.448.025-1.069.317-1.233.58-.066.107-.172.122-.346.049a40 40 0 0 0-1.146-.376L6.413 7.4l-.033-.202c-.079-.494-.41-.941-.889-1.2-.296-.16-.346-.17-.791-.17-.569-.001-.835.105-1.216.485a1.706 1.706 0 0 0-.212 2.156c.098.147.178.287.178.312s-.31.754-.689 1.62l-.688 1.575-.285.036c-.886.11-1.501.826-1.501 1.745 0 .486.145.822.51 1.182a1.695 1.695 0 0 0 2.346.037c.618-.558.722-1.555.237-2.26l-.17-.248.162-.371.7-1.604.536-1.234.259-.033c.357-.047.77-.242 1.014-.482l.207-.202 1.068.31c1.435.414 1.312.354 1.414.69.166.54.517.945 1.018 1.173.359.163.992.153 1.362-.02a1.83 1.83 0 0 0 .836-.836c.122-.25.139-.34.139-.758 0-.453-.009-.49-.182-.804l-.181-.329.135-.246c.074-.135.503-.932.952-1.771s.874-1.63.945-1.757l.129-.231.33-.024c1.374-.098 2.112-1.69 1.264-2.726-.337-.411-1.01-.69-1.517-.625m-.082 1.263c-.278.112-.36.537-.147.766.154.166.34.212.532.133.206-.086.297-.232.297-.48 0-.349-.34-.557-.682-.42m-9.25 5.248c-.233.1-.345.465-.216.706.08.152.336.26.527.225.51-.096.486-.888-.029-.954a.7.7 0 0 0-.282.023m5.556 1.623c-.17.074-.274.26-.274.486 0 .209.238.444.45.444.312 0 .496-.172.498-.466.003-.254-.071-.378-.275-.463-.203-.085-.207-.085-.4-.001m-8.377 4.676c-.397.397.05 1.04.547.783.184-.095.257-.217.257-.429 0-.221-.082-.347-.277-.43-.25-.103-.364-.087-.527.076"/></svg>