<svg xmlns="http://www.w3.org/2000/svg" fill-rule="evenodd" viewBox="0 0 16 16"><path d="M2.32 1.92c-.51.125-.936.476-1.182.976l-.113.229v9.75l.132.282c.169.36.476.667.836.836l.282.132 5.659.013c5.64.013 5.66.013 5.94-.091.52-.195.939-.625 1.088-1.114.049-.161.063-1.274.063-4.958v-4.75l-.141-.305a1.93 1.93 0 0 0-.909-.905l-.3-.14-5.55-.009c-4.3-.007-5.608.006-5.806.054m-.04.943a.85.85 0 0 0-.313.332l-.116.22V8.02c0 5.161-.027 4.787.367 5.102l.192.153 5.483.015c3.829.01 5.54-.002 5.67-.04.273-.079.52-.357.585-.657s.07-8.804.007-9.136a.88.88 0 0 0-.403-.594l-.166-.113H8.03l-5.555.002Zm1.096.762a1 1 0 0 0-.571.608c-.086.31-.07 7.287.018 7.533.086.24.202.368.444.492.175.09.282.096 1.303.082 1.11-.015 1.114-.015 1.314-.148.387-.256.367-.029.367-4.214 0-3.038-.013-3.762-.068-3.894-.087-.209-.333-.416-.571-.482-.29-.08-1.993-.063-2.236.023m1.208 1.982c-.158.091-.247.374-.181.573.137.415.877.433 1.046.026a.48.48 0 0 0-.134-.555c-.142-.113-.57-.138-.731-.044m-.164 1.545c-.52.103-.619.146-.619.273 0 .1.037.131.2.175.11.03.2.072.2.095s-.112.55-.25 1.175c-.369 1.673-.352 1.764.311 1.718.484-.034.839-.187.839-.361 0-.114-.02-.127-.197-.127-.108 0-.206-.017-.218-.037s.11-.657.27-1.413.292-1.414.293-1.463c.002-.074-.043-.086-.31-.082a4 4 0 0 0-.519.047"/></svg>